<?xml version="1.0" encoding="utf-8"?>
<svg version="1.1" id="Layer_1" xmlns="http://www.w3.org/2000/svg" xmlns:xlink="http://www.w3.org/1999/xlink" x="0px" y="0px"
	 viewBox="0 0 612 612" enable-background="new 0 0 612 612" xml:space="preserve">
<circle cx="305" cy="305" r="304"/>
<path fill="#FFFFFF" d="M347.5,197.8L150,87.3c-7.6-4.2-16.9-4.2-24.4,0.2c-7.5,4.4-12.1,12.4-12.1,21.1v221
	c0,8.7,4.6,16.7,12.1,21.1c3.8,2.2,8.1,3.4,12.4,3.4c4.1,0,8.2-1,12-3.1l197.5-110.5c7.7-4.3,12.5-12.5,12.5-21.4
	S355.2,202.1,347.5,197.8z"/>
<path fill="#FFFFFF" d="M435,429.6l-161.1-90.2c-6.2-3.5-13.8-3.4-19.9,0.2c-6.1,3.6-9.9,10.1-9.9,17.2v180.3
	c0,7.1,3.8,13.7,9.9,17.2c3.1,1.8,6.6,2.7,10.1,2.7c3.4,0,6.7-0.8,9.8-2.5L435,464.5c6.3-3.5,10.2-10.2,10.2-17.4
	S441.3,433.1,435,429.6z"/>
<path fill="#FFFFFF" d="M517.2,286.8l-104.6-58.5c-4-2.2-8.9-2.2-12.9,0.1c-4,2.3-6.4,6.6-6.4,11.2v117.1c0,4.6,2.4,8.9,6.4,11.2
	c2,1.2,4.3,1.8,6.6,1.8c2.2,0,4.4-0.5,6.3-1.7l104.6-58.5c4.1-2.3,6.6-6.6,6.6-11.3C523.8,293.5,521.3,289.1,517.2,286.8z"/>
</svg>
